<?xml version="1.0" encoding="UTF-8"?>
<svg id="_Слой_2" data-name="Слой 2" xmlns="http://www.w3.org/2000/svg" viewBox="0 0 121.89 33.01">
  <defs>
    <style>
      .cls-1 {
        fill: #9a1922;
        fill-rule: evenodd;
        stroke-width: 0px;
      }
    </style>
  </defs>
  <g id="_Слой_1-2" data-name="Слой 1">
    <g>
      <path class="cls-1" d="m41.82,17.53c-.72-.19-11.74-.03-11.76,0-.38.35-.72,1.55-.96,2.16-.32.78-.8,1.44-1.26,1.95-3.35,3.88-11.47,1.74-13.53,2-.88.11-1.5.96-.99,1.84.48.91,4.39.88,5.44.96,1.93.11,4.39.08,6.14-.4,4.34-1.2,5.28-2.83,7.05-5.99l6.54-.05c-.72,3.26-4.13,6.39-6.94,7.94-6.51,3.61-18.01,3.29-23.85-1.15C-.89,20.34,1.25,4.52,18.75,2.73c6.06-.61,13.34,1.12,16.88,5.35.56.67,2.81,3.45,2.73,4.57l-6.43.08c-1.47-2.57-2.76-4.94-6.81-5.4-1.9-.21-3.91-.11-5.81-.08-1.71.03-4.61-.11-6.19.16-.21,1.15-.05,3.88-.05,5.18,0,1.2-.24,4.17.46,4.81.46.4,1.55.35,1.96-.05.54-.48.43-1.44.4-2.27-.03-.4-.24-4.78.11-5.1.56-.32,8.47-.29,9.43-.03,3.35.96,3.48,3.13,4.53,5.27l12-.03c-.03-.91-.72-2.78-1.07-3.66C37.77,3.4,28.93-.08,20.27,0c-5.04.05-10.83,2.19-13.93,4.49-10.53,7.91-9.32,28.2,14.2,28.52,7.48.11,15.22-2.91,18.89-8.79.75-1.2,2.63-4.94,2.38-6.68h0Z"/>
      <path class="cls-1" d="m91.23,15.42c-.21-.61-.08-1.55-.05-2.22,1.1-.11,1.47.05,2.06.45.19,1.58-.51,1.9-2.01,1.76h0Zm-.4,5.83c.64-.8.21-2.67.32-3.82,1.5.05,1.8,1.28,2.22,2.51.21.61.38,1.18.96,1.39.62.19,1.61.13,2.12-.16,0-.83-.43-1.79-.78-2.43-.32-.67-.94-1.63-1.1-2.14.64-.59,1.21-.83,1.39-1.95.19-1.04-.19-2.06-.72-2.54-1.13-1.02-3.89-1.07-5.73-.86-1.21.11-.99,1.15-.96,2.3l-.03,6.65c.03,1.28.88,1.39,2.3,1.04h0Z"/>
      <path class="cls-1" d="m63.17,13.52c3.67-1.66,3.78,4.97,1.69,5.77-1.88.69-2.89-.4-3.08-2-.16-1.74.19-3.21,1.39-3.77h0Zm5.39,3.77c.21-1.47.03-2.94-.62-4.09-.62-1.07-1.53-1.58-3.11-1.79-3.19-.4-5.04,1.28-5.47,4.06-.48,3.18.67,5.53,3.64,5.91,3.35.43,5.12-1.2,5.55-4.09h0Z"/>
      <path class="cls-1" d="m117.89,14.7c-.08-.29-.27-1.6.08-1.79.64-.32,5.17.86,3.59-1.98-1.04-.21-2.41-.08-3.48-.05-.78,0-2.6-.27-3.05.48-.32.59-.11,7.16-.11,8.42.03,1.84,1.21,1.47,2.87,1.44,1.29-.03,3.08.19,4.02-.32.46-3.05-1.74-1.26-3.91-1.82l-.03-2.16c1.61-.43,4.21.78,3.19-2.08l-3.16-.13Z"/>
      <path class="cls-1" d="m74.1,11.6c-.16,1.6-.13,4.76-.03,6.39.32,4.38,6.08,4.12,7.66,1.95.96-1.34.64-3.69.67-5.56,0-.75.24-2.51-.24-2.91-.48-.4-1.98-.43-2.2.48-.35,1.6.29,4.44-.08,6.15-.43,1.92-3.08,1.76-3.38-.27-.24-1.63,0-4.38-.11-6.2-.75-.43-1.5-.45-2.3-.03h0Z"/>
      <path class="cls-1" d="m109.42,18.44c-1.37-.11-1.74,1.12-3.46.67-2.17-.53-2.25-4.81-.56-5.88,1.45-.88,2.49.43,3.8.35,1.07-2.83-2.36-3.18-4.56-2.49-5.84,1.87-3.91,12.4,3.59,9.97,1.31-.45,1.88-1.1,1.18-2.62h0Z"/>
      <path class="cls-1" d="m52.02,18.23l.03.88c-1.34,1.18-2.52-.24-3.91-.19l-.13,1.66c1.18,1.23,5.25,1.71,6.35-1.26.56-1.47-.21-2.7-1.07-3.29-.99-.67-2.38-.8-2.73-1.92l.38-.67c1.58-.21,1.9.56,2.84.45,1.23-3.21-4.13-3.02-5.28-.99-.75,1.28-.32,2.83.51,3.53.91.78,2.33,1.07,3.03,1.79h0Z"/>
    </g>
  </g>
</svg>